# xmcd
#
# Track frame offsets: 
#        150
#        16622
#        33822
#        53127
#        72278
#        89021
#        103674
#        121267
#        138016
#        150975
#
# Disc length: 2381 seconds
#
# Revision: 0
# Processed by: cddbd v1.5.2PL0 Copyright (c) Steve Scherf et al.
# Submitted via: ExactAudioCopy v0.99pb5
#
DISCID=70094b0a
DTITLE=Roosevelt Dean - Blues Heaven
DYEAR=1995
DGENRE=Blues
TTITLE0=Good Mornin World
TTITLE1=Vigra Pills
TTITLE2=Long Distance Call
TTITLE3=Blues Heaven
TTITLE4=My Whiskey Told Me
TTITLE5=Just For You
TTITLE6=I Know What My Body Needs
TTITLE7=Nine Below Zero
TTITLE8=I Used To Be
TTITLE9=You Can't Lose What You Ain't Got
EXTD=
EXTT0=
EXTT1=
EXTT2=
EXTT3=
EXTT4=
EXTT5=
EXTT6=
EXTT7=
EXTT8=
EXTT9=
PLAYORDER=
